<svg xmlns="http://www.w3.org/2000/svg" viewBox="0 0 1024 1024">
  <defs>
    <linearGradient id="bg" x1="0" y1="0" x2="0" y2="1">
      <stop offset="0" stop-color="#2a2118"/>
      <stop offset="1" stop-color="#14110d"/>
    </linearGradient>
  </defs>
  <rect width="1024" height="1024" rx="224" fill="url(#bg)"/>
  <g transform="translate(160,281) scale(11)" fill="#d8a657">
    <path d="M6 11 Q32 7 58 11 L58 13.5 Q32 9.5 6 13.5 Z"/>
    <rect x="28" y="13" width="8" height="2" rx="1"/>
    <rect x="28" y="16.5" width="8" height="1.8" rx="0.9"/>
    <path fill-rule="evenodd" d="M6 12 C6 12 22 11 27 13 C29 14 29 18.5 26.5 23.5 C23 30 15 31.5 10.5 28 C6.5 24.5 5 18 6 12 Z M9 14 C8.5 19 10 24.5 13 26.5 C17 28.5 22.5 26.5 24.5 21.5 C26 17.5 26.5 14.6 25 13.6 C21 11.8 11 12.5 9 14 Z"/>
    <path fill-rule="evenodd" d="M58 12 C58 12 42 11 37 13 C35 14 35 18.5 37.5 23.5 C41 30 49 31.5 53.5 28 C57.5 24.5 59 18 58 12 Z M55 14 C55.5 19 54 24.5 51 26.5 C47 28.5 41.5 26.5 39.5 21.5 C38 17.5 37.5 14.6 39 13.6 C43 11.8 53 12.5 55 14 Z"/>
    <path d="M32 33 C27 32.4 22.5 32.6 21 35.2 C20 37 20.4 39.6 21.8 39.8 C23 40 23.2 37.6 24.6 35.8 C26.6 33.6 29.6 33.6 32 33.8 C34.4 33.6 37.4 33.6 39.4 35.8 C40.8 37.6 41 40 42.2 39.8 C43.6 39.6 44 37 43 35.2 C41.5 32.6 37 32.4 32 33 Z"/>
  </g>
</svg>
